<svg version="1" xmlns="http://www.w3.org/2000/svg" width="682.667" height="682.667" viewBox="0 0 512.000000 512.000000"><path d="M238.7 49.6c-8.7 1.6-22.9 6.7-24.7 8.9-.7.8-1.7 1.5-2.3 1.5-1.3 0-9.3 6.4-13.6 10.9-8.3 8.8-16.9 25.5-19.6 37.8l-.7 3.3-75.8.2c-74.8.3-75.9.3-78.6 2.4-1.5 1.1-3.7 3.3-4.8 4.8-2.1 2.7-2.1 3.6-2.1 72.6 0 80-1 72.1 9.8 79.3l5.7 3.8.1 87.7c0 65.2.3 88.6 1.2 91.2.7 2 3 4.8 5.5 6.7l4.3 3.3 213.4-.3 213.4-.2 2.7-2.1c1.5-1.1 3.7-3.3 4.8-4.8 2.1-2.7 2.1-3.6 2.4-92.4l.2-89.7 4.9-2.8c6-3.3 9.8-7.7 10.6-12 .3-1.8.5-33.4.3-70.4-.3-66-.3-67.2-2.4-69.9-1.1-1.5-3.3-3.7-4.8-4.8-2.7-2.1-3.8-2.1-78.5-2.4l-75.8-.2-1.7-6.2c-8-28.9-26.4-47.9-53.1-54.9-10.4-2.7-29.9-3.3-40.8-1.3zm31.5 32c8.2 1.9 14.9 5.7 20.2 11.4 4.2 4.4 8.4 11.6 10 16.7l.7 2.3h-90.2l.7-2.3c2.7-8.9 10.6-18.9 18.3-23.5 9.7-5.7 27.2-7.6 40.3-4.6zM464 195.5v51.4l-5.9 3.4c-17.2 10.1-51.3 24.9-75.6 32.9-17.2 5.5-48.9 13.4-61.5 15.3-2.5.3-5.4.8-6.5.9-1.1.2-4.7.7-8 1-3.3.4-6.7.9-7.5 1.1-1.5.4-17.7 1.7-23.5 1.9l-3 .1-.6-10.5c-.6-11.7-1.3-13.7-6.5-17.6-6.9-5.3-16.6-4-22 3.2-2.7 3.5-2.9 4.5-3.2 14.4l-.4 10.7-3.7-.3c-2-.1-7.8-.5-12.9-.8-5.1-.4-9.8-.9-10.5-1.1-.6-.2-3.6-.6-6.5-.9-7.7-.9-12.2-1.6-17.2-2.6-2.5-.5-6.1-1.2-8-1.5-23.4-3.8-61.4-15.6-90.2-28.1-12.6-5.5-38.9-18.5-41.5-20.6-1-.8-1.3-12.5-1.3-52.4V144h416v51.5zM73.4 295.6c4.4 2 9.5 4.2 11.1 4.9 15.1 6.7 53.3 19.2 70.5 23.1 1.9.4 4 .9 4.5 1 11.7 2.8 34.8 7 44 7.9 3.3.4 6.7.8 7.5 1 1.7.5 17.3 1.7 24 1.9l4.5.1.6 11c.6 12.2 1.3 14.2 6.5 18.1 7 5.3 16.6 4 22-3.2 2.7-3.5 2.9-4.4 3.2-14.8l.4-11.1 4.2-.1c4.3-.1 18-1.2 23.1-1.8 1.7-.2 5.7-.7 9-1 5.3-.6 8.5-1.1 19.9-3 1.6-.3 5.2-1 8-1.5 2.8-.6 6.2-1.3 7.6-1.5 1.4-.2 6.3-1.4 11-2.6 4.7-1.1 9.2-2.3 10-2.4 16.6-4 51.3-15.8 67.5-23.1 10.7-4.8 14.6-6.5 15-6.5.3 0 .5 31.5.5 70v70H64v-70c0-38.5.3-70 .6-70 .4 0 4.3 1.6 8.8 3.6z"/></svg>